<?xml version="1.0" encoding="UTF-8"?>
<!DOCTYPE svg PUBLIC "-//W3C//DTD SVG 1.1//EN" "http://www.w3.org/Graphics/SVG/1.1/DTD/svg11.dtd">
<svg xmlns="http://www.w3.org/2000/svg" version="1.1" width="512px" height="512px" style="shape-rendering:geometricPrecision; text-rendering:geometricPrecision; image-rendering:optimizeQuality; fill-rule:evenodd; clip-rule:evenodd" xmlns:xlink="http://www.w3.org/1999/xlink">
<g><path style="opacity:0.995" fill="#000000" d="M 244.5,-0.5 C 251.833,-0.5 259.167,-0.5 266.5,-0.5C 290.963,5.49354 307.13,20.4935 315,44.5C 316.477,94.4616 316.977,144.462 316.5,194.5C 366.538,194.023 416.538,194.523 466.5,196C 490.506,203.87 505.506,220.037 511.5,244.5C 511.5,251.833 511.5,259.167 511.5,266.5C 505.506,290.963 490.506,307.13 466.5,315C 416.538,316.477 366.538,316.977 316.5,316.5C 316.977,366.538 316.477,416.538 315,466.5C 307.13,490.506 290.963,505.506 266.5,511.5C 259.167,511.5 251.833,511.5 244.5,511.5C 220.037,505.506 203.87,490.506 196,466.5C 194.523,416.538 194.023,366.538 194.5,316.5C 144.462,316.977 94.4616,316.477 44.5,315C 20.4935,307.13 5.49354,290.963 -0.5,266.5C -0.5,259.167 -0.5,251.833 -0.5,244.5C 5.49354,220.037 20.4935,203.87 44.5,196C 94.4616,194.523 144.462,194.023 194.5,194.5C 194.023,144.462 194.523,94.4616 196,44.5C 203.87,20.4935 220.037,5.49354 244.5,-0.5 Z"/></g>
</svg>
