<?xml version="1.0" encoding="UTF-8"?>
<!DOCTYPE svg PUBLIC "-//W3C//DTD SVG 1.1//EN" "http://www.w3.org/Graphics/SVG/1.1/DTD/svg11.dtd">
<svg xmlns="http://www.w3.org/2000/svg" version="1.1" width="512px" height="512px" style="shape-rendering:geometricPrecision; text-rendering:geometricPrecision; image-rendering:optimizeQuality; fill-rule:evenodd; clip-rule:evenodd" xmlns:xlink="http://www.w3.org/1999/xlink">
<g><path style="opacity:0.985" fill="#000000" d="M 238.5,21.5 C 329.231,18.6143 400.065,54.2809 451,128.5C 489.356,192.733 496.689,260.4 473,331.5C 449.393,392.105 408.226,436.272 349.5,464C 340.138,467.933 330.638,471.433 321,474.5C 320.667,454.5 320.333,434.5 320,414.5C 317.706,404.913 313.539,396.246 307.5,388.5C 326.108,384.575 344.108,378.742 361.5,371C 380.706,359.475 393.873,342.975 401,321.5C 408.049,297.716 409.049,273.716 404,249.5C 399.939,236.201 393.439,224.368 384.5,214C 390.954,194.734 390.454,175.567 383,156.5C 381.818,154.643 380.151,153.643 378,153.5C 364.343,155.608 351.51,160.108 339.5,167C 333.516,170.906 327.349,174.406 321,177.5C 284.5,168.175 248,168.175 211.5,177.5C 209.701,177.423 208.034,176.923 206.5,176C 190.627,163.984 172.794,156.484 153,153.5C 148.895,156.699 146.561,161.033 146,166.5C 144.466,173.942 143.299,181.442 142.5,189C 144.327,197.789 145.494,206.623 146,215.5C 124.224,246.758 118.891,280.758 130,317.5C 139.13,346.633 157.963,366.799 186.5,378C 198.825,382.415 211.492,385.248 224.5,386.5C 224.17,390.021 222.67,393.021 220,395.5C 216.006,403.327 212.506,411.327 209.5,419.5C 184.279,429.921 163.779,424.255 148,402.5C 140.979,387.328 129.146,378.328 112.5,375.5C 109.29,375.894 106.624,377.227 104.5,379.5C 110.815,387.648 117.982,394.982 126,401.5C 132.509,412.517 138.509,423.85 144,435.5C 152.515,443.673 162.682,448.506 174.5,450C 185.01,451.779 195.51,451.613 206,449.5C 207.5,449.833 209,450.167 210.5,450.5C 211.807,460.136 211.807,469.803 210.5,479.5C 133.281,462.165 77.7807,417.832 44,346.5C 11.9925,266.909 19.3258,191.243 66,119.5C 108.769,61.298 166.269,28.6313 238.5,21.5 Z"/></g>
</svg>
