<?xml version="1.0" encoding="UTF-8"?>
<!DOCTYPE svg PUBLIC "-//W3C//DTD SVG 1.1//EN" "http://www.w3.org/Graphics/SVG/1.1/DTD/svg11.dtd">
<svg xmlns="http://www.w3.org/2000/svg" version="1.1" width="512px" height="512px" style="shape-rendering:geometricPrecision; text-rendering:geometricPrecision; image-rendering:optimizeQuality; fill-rule:evenodd; clip-rule:evenodd" xmlns:xlink="http://www.w3.org/1999/xlink">
<g><path style="opacity:0.964" fill="#000000" d="M 253.5,30.5 C 266.026,30.6812 276.526,35.3478 285,44.5C 303.512,80.1901 321.512,116.19 339,152.5C 339.833,153.333 340.667,154.167 341.5,155C 380.82,160.998 420.153,166.998 459.5,173C 480.524,180.863 489.358,196.03 486,218.5C 484.47,223.892 482.137,228.892 479,233.5C 450.667,261.167 422.333,288.833 394,316.5C 400.052,356.482 406.219,396.482 412.5,436.5C 412.491,454.347 404.158,466.513 387.5,473C 377.398,475.995 367.398,475.329 357.5,471C 323.658,452.912 289.658,435.078 255.5,417.5C 219.802,436.015 184.135,454.515 148.5,473C 119.349,478.436 102.349,466.603 97.5,437.5C 104.441,397.187 110.941,356.854 117,316.5C 88.6667,288.833 60.3333,261.167 32,233.5C 22,217.5 22,201.5 32,185.5C 38.5041,177.999 46.6707,173.499 56.5,172C 94.2382,166.704 131.905,161.038 169.5,155C 187.973,119.888 205.806,84.3881 223,48.5C 230.579,37.9658 240.746,31.9658 253.5,30.5 Z M 252.5,64.5 C 254.792,64.2436 256.959,64.5769 259,65.5C 276.605,100.377 293.938,135.377 311,170.5C 316.637,179.793 324.803,185.626 335.5,188C 371.819,193.427 408.153,198.76 444.5,204C 447.571,204.147 450.404,204.98 453,206.5C 453.667,208.5 453.667,210.5 453,212.5C 424.667,240.167 396.333,267.833 368,295.5C 361.578,304.521 359.245,314.521 361,325.5C 367.129,362.775 373.629,399.942 380.5,437C 379.333,439.5 377.5,441.333 375,442.5C 340.421,424.461 305.921,406.294 271.5,388C 260.833,383.333 250.167,383.333 239.5,388C 205.991,405.922 172.324,423.588 138.5,441C 135.975,441.896 133.808,441.396 132,439.5C 131.333,436.5 131.333,433.5 132,430.5C 138.108,395.519 144.108,360.519 150,325.5C 151.61,314.547 149.277,304.547 143,295.5C 114.667,267.833 86.3333,240.167 58,212.5C 56.7879,209.166 57.6212,206.666 60.5,205C 98.8333,199.333 137.167,193.667 175.5,188C 186.147,185.693 194.314,179.859 200,170.5C 217.242,135.017 234.742,99.6835 252.5,64.5 Z"/></g>
</svg>
