<?xml version="1.0" encoding="UTF-8"?>
<!DOCTYPE svg PUBLIC "-//W3C//DTD SVG 1.1//EN" "http://www.w3.org/Graphics/SVG/1.1/DTD/svg11.dtd">
<svg xmlns="http://www.w3.org/2000/svg" version="1.1" width="512px" height="512px" style="shape-rendering:geometricPrecision; text-rendering:geometricPrecision; image-rendering:optimizeQuality; fill-rule:evenodd; clip-rule:evenodd" xmlns:xlink="http://www.w3.org/1999/xlink">
<g><path style="opacity:0.991" fill="#000000" d="M 239.5,-0.5 C 250.167,-0.5 260.833,-0.5 271.5,-0.5C 314.74,6.36641 347.907,28.3664 371,65.5C 389.721,99.4736 393.721,135.14 383,172.5C 360.922,231.401 318.422,262.401 255.5,265.5C 204.897,264.292 166.397,242.292 140,199.5C 116.667,154.833 116.667,110.167 140,65.5C 163.093,28.3664 196.26,6.36641 239.5,-0.5 Z"/></g>
<g><path style="opacity:0.992" fill="#000000" d="M 277.5,511.5 C 262.5,511.5 247.5,511.5 232.5,511.5C 151.191,502.439 86.3579,465.106 38,399.5C 33.2274,392.956 29.2274,385.956 26,378.5C 25.8083,375.053 26.4749,371.72 28,368.5C 55.1745,314.344 98.8412,283.011 159,274.5C 161.925,274.523 164.759,275.023 167.5,276C 209.861,306.766 255.861,313.766 305.5,297C 318.435,291.869 330.435,285.202 341.5,277C 346.662,274.871 351.995,274.204 357.5,275C 410.572,284.435 450.739,312.268 478,358.5C 481.052,363.937 483.552,369.603 485.5,375.5C 479.453,388.386 471.953,400.386 463,411.5C 414.954,470.111 353.121,503.444 277.5,511.5 Z"/></g>
</svg>
